<?xml version="1.0" encoding="UTF-8" standalone="no"?><!-- Generator: Gravit.io --><svg xmlns="http://www.w3.org/2000/svg" xmlns:xlink="http://www.w3.org/1999/xlink" style="isolation:isolate" viewBox="-250 -96 1997 967" width="1997pt" height="967pt"><defs><clipPath id="_clipPath_p1fbz9sdj8FEVNeMmdH2ETnR1INPeh8F"><rect x="-250" y="-96" width="1997" height="967"/></clipPath></defs><g clip-path="url(#_clipPath_p1fbz9sdj8FEVNeMmdH2ETnR1INPeh8F)"><g><g><g><rect x="-250" y="-96" width="1997" height="967" transform="matrix(1,0,0,1,0,0)" fill="rgb(0,0,0)"/></g><circle vector-effect="non-scaling-stroke" cx="487.4999999999999" cy="343.49999999999994" r="41.49999999999997" fill="rgb(28,28,28)"/><ellipse vector-effect="non-scaling-stroke" cx="609.4999999999998" cy="262.00404858299595" rx="41.5" ry="42.00404858299595" fill="rgb(28,28,28)"/><circle vector-effect="non-scaling-stroke" cx="548.4999999999998" cy="526" r="41.5" fill="rgb(28,28,28)"/><rect x="446" y="343.5" width="22" height="87.5" transform="matrix(1,0,0,1,0,0)" fill="rgb(28,28,28)"/><rect x="629" y="262.004" width="22" height="168.996" transform="matrix(1,0,0,1,0,0)" fill="rgb(28,28,28)"/><rect x="507" y="341.25" width="22" height="184.75" transform="matrix(1,0,0,1,0,0)" fill="rgb(28,28,28)"/><circle vector-effect="non-scaling-stroke" cx="715.5000000000002" cy="368.4999999999998" r="41.5" fill="rgb(28,28,28)"/><rect x="735" y="331" width="22" height="148" transform="matrix(1,0,0,1,0,0)" fill="rgb(28,28,28)"/><rect x="674" y="346.502" width="22" height="25.498" transform="matrix(1,0,0,1,0,0)" fill="rgb(28,28,28)"/><rect x="888" y="301.562" width="22" height="129" transform="matrix(1,0,0,1,0,0)" fill="rgb(28,28,28)"/><rect x="568" y="264" width="22" height="262" transform="matrix(1,0,0,1,0,0)" fill="rgb(28,28,28)"/></g><circle vector-effect="non-scaling-stroke" cx="487.50000000000006" cy="342.875" r="19.500000000000057" fill="rgb(0,0,0)"/><rect x="468" y="342.875" width="39" height="88.125" transform="matrix(1,0,0,1,0,0)" fill="rgb(0,0,0)"/><circle vector-effect="non-scaling-stroke" cx="609.4999999999999" cy="260.74999999999994" r="19.500000000000114" fill="rgb(0,0,0)"/><circle vector-effect="non-scaling-stroke" cx="548.4999999999998" cy="526.5" r="19.500000000000114" fill="rgb(0,0,0)"/><rect x="590" y="260.75" width="39" height="86.125" transform="matrix(1,0,0,1,0,0)" fill="rgb(0,0,0)"/><rect x="529" y="440.875" width="39" height="86.125" transform="matrix(1,0,0,1,0,0)" fill="rgb(0,0,0)"/><circle vector-effect="non-scaling-stroke" cx="715.4999999999994" cy="370.4374999999998" r="19.500000000000114" fill="rgb(0,0,0)"/><circle vector-effect="non-scaling-stroke" cx="975.5000000000003" cy="389.4999999999999" r="41.5" fill="rgb(28,28,28)"/><circle vector-effect="non-scaling-stroke" cx="975.4999999999987" cy="389.43749999999926" r="19.500000000000114" fill="rgb(0,0,0)"/><rect x="696" y="312" width="39" height="56.938" transform="matrix(1,0,0,1,0,0)" fill="rgb(0,0,0)"/><rect x="674" y="323.375" width="84" height="23.5" transform="matrix(1,0,0,1,0,0)" fill="rgb(0,0,0)"/><circle vector-effect="non-scaling-stroke" cx="808.4999999999992" cy="444.24999999999943" r="19.500000000000114" fill="rgb(0,0,0)"/><rect x="789" y="394.25" width="39" height="50" transform="matrix(1,0,0,1,0,0)" fill="rgb(0,0,0)"/><g><rect x="842" y="387.625" width="22" height="89" transform="matrix(1,0,0,1,0,0)" fill="rgb(28,28,28)"/><circle vector-effect="non-scaling-stroke" cx="822.5" cy="389.4999999999999" r="41.5" fill="rgb(28,28,28)"/><circle vector-effect="non-scaling-stroke" cx="822.4999999999984" cy="387.62500000000006" r="19.500000000000114" fill="rgb(0,0,0)"/></g></g></g></svg>